<svg width="11" height="10" viewBox="0 0 11 10" fill="none" xmlns="http://www.w3.org/2000/svg">
<g clip-path="url(#clip0_3002_103)">
<path d="M8.7035 5.39079C8.61522 5.39079 8.52293 5.3627 8.43465 5.34264C8.25589 5.30325 8.08021 5.25094 7.909 5.18615C7.72285 5.11843 7.51824 5.12194 7.33452 5.19602C7.15081 5.2701 7.00099 5.4095 6.91388 5.58741L6.8256 5.76797C6.43478 5.55056 6.07564 5.28054 5.75825 4.96545C5.44317 4.64807 5.17314 4.28893 4.95573 3.8981L5.12426 3.78575C5.30217 3.69865 5.44157 3.54882 5.51565 3.36511C5.58973 3.1814 5.59324 2.97678 5.52552 2.79063C5.46181 2.61906 5.40953 2.44346 5.36903 2.26498C5.34897 2.1767 5.33292 2.08441 5.32088 1.99212C5.27215 1.70948 5.12411 1.45353 4.90342 1.27035C4.68272 1.08718 4.40388 0.988817 4.1171 0.992986H2.91332C2.74039 0.991362 2.56914 1.02702 2.41123 1.09753C2.25332 1.16803 2.11245 1.27174 1.99822 1.40158C1.88399 1.53142 1.79908 1.68435 1.74926 1.84996C1.69945 2.01557 1.6859 2.18997 1.70954 2.36128C1.92331 4.04231 2.69104 5.60421 3.89145 6.80027C5.09187 7.99633 6.65656 8.75836 8.33835 8.96601H8.49083C8.78672 8.96645 9.07241 8.85788 9.29335 8.66105C9.42029 8.54752 9.5217 8.40833 9.59087 8.2527C9.66004 8.09707 9.6954 7.92853 9.69461 7.75822V6.55444C9.68969 6.27572 9.5882 6.00735 9.40744 5.79513C9.22669 5.5829 8.97788 5.43999 8.7035 5.39079ZM8.90413 7.79835C8.90405 7.85532 8.89185 7.91162 8.86833 7.96351C8.8448 8.0154 8.8105 8.06169 8.7677 8.09929C8.72286 8.138 8.67043 8.16692 8.61377 8.1842C8.55711 8.20147 8.49747 8.20672 8.43867 8.19961C6.93591 8.00692 5.54006 7.31944 4.4713 6.24559C3.40254 5.17174 2.72169 3.77265 2.53614 2.26899C2.52975 2.21021 2.53535 2.15075 2.55259 2.0942C2.56983 2.03765 2.59836 1.98518 2.63645 1.93996C2.67406 1.89716 2.72034 1.86285 2.77223 1.83933C2.82412 1.81581 2.88043 1.8036 2.9374 1.80353H4.14118C4.23449 1.80145 4.3256 1.83197 4.39884 1.88983C4.47208 1.94769 4.52286 2.02927 4.54244 2.12053C4.55849 2.2302 4.57855 2.33854 4.60262 2.44555C4.64898 2.65707 4.71067 2.86493 4.7872 3.0675L4.22544 3.32832C4.17741 3.35035 4.1342 3.38166 4.0983 3.42044C4.06241 3.45923 4.03452 3.50472 4.01625 3.5543C3.99798 3.60389 3.98969 3.6566 3.99185 3.7094C3.994 3.7622 4.00657 3.81406 4.02882 3.86199C4.60632 5.09898 5.60066 6.09332 6.83764 6.67081C6.93533 6.71094 7.04491 6.71094 7.1426 6.67081C7.19264 6.65291 7.23863 6.62525 7.27789 6.58943C7.31715 6.55361 7.34891 6.51035 7.37132 6.46215L7.6201 5.90039C7.82753 5.97457 8.03925 6.03621 8.25409 6.08497C8.36109 6.10904 8.46943 6.12911 8.57911 6.14516C8.67036 6.16473 8.75194 6.21551 8.8098 6.28875C8.86766 6.36199 8.89818 6.45311 8.8961 6.54642L8.90413 7.79835Z" fill="#515251"/>
</g>
<defs>
<clipPath id="clip0_3002_103">
<rect width="9.63023" height="9.63023" fill="white" transform="translate(0.903076 0.174408)"/>
</clipPath>
</defs>
</svg>
