<svg width="11" height="10" viewBox="0 0 11 10" fill="none" xmlns="http://www.w3.org/2000/svg">
<g clip-path="url(#clip0_3002_396)">
<path d="M9.39766 0.923775C9.11004 0.874233 8.81879 0.848732 8.52693 0.847536C7.53115 0.84672 6.55614 1.13226 5.71811 1.67012C4.87794 1.13932 3.90308 0.86079 2.9093 0.867599C2.61744 0.868795 2.32619 0.894296 2.03856 0.943838C1.94435 0.960081 1.85903 1.00943 1.79797 1.08299C1.73692 1.15656 1.70413 1.2495 1.70552 1.3451V6.16021C1.70466 6.21917 1.71681 6.27759 1.74109 6.33132C1.76538 6.38506 1.80121 6.43277 1.84603 6.47109C1.89085 6.5094 1.94357 6.53736 2.00043 6.55298C2.05729 6.5686 2.11689 6.5715 2.17499 6.56147C2.75001 6.46191 3.33913 6.47843 3.90766 6.61005C4.47619 6.74168 5.01263 6.98574 5.48538 7.32788L5.53353 7.35596H5.57767C5.62217 7.37451 5.66991 7.38405 5.71811 7.38405C5.76632 7.38405 5.81405 7.37451 5.85855 7.35596H5.90269L5.95084 7.32788C6.4203 6.9781 6.9552 6.72612 7.52384 6.58689C8.09248 6.44766 8.68328 6.42401 9.26123 6.51733C9.31934 6.52736 9.37894 6.52446 9.4358 6.50884C9.49266 6.49322 9.54537 6.46526 9.5902 6.42695C9.63502 6.38864 9.67085 6.34092 9.69514 6.28719C9.71942 6.23345 9.73157 6.17503 9.73071 6.11607V1.30096C9.72653 1.20953 9.69123 1.12228 9.63065 1.05368C9.57008 0.985074 9.48787 0.939238 9.39766 0.923775ZM5.31685 6.25651C4.57448 5.86596 3.74814 5.66213 2.9093 5.66265C2.77688 5.66265 2.64447 5.66265 2.50804 5.66265V1.65005C2.64168 1.64235 2.77566 1.64235 2.9093 1.65005C3.76534 1.64911 4.6027 1.90032 5.31685 2.37232V6.25651ZM8.92819 5.6787C8.79176 5.6787 8.65935 5.6787 8.52693 5.6787C7.68809 5.67818 6.86175 5.88201 6.11937 6.27256V2.37232C6.83353 1.90032 7.67089 1.64911 8.52693 1.65005C8.66057 1.64235 8.79455 1.64235 8.92819 1.65005V5.6787ZM9.39766 7.34393C9.11004 7.29438 8.81879 7.26888 8.52693 7.26769C7.53115 7.26687 6.55614 7.55241 5.71811 8.09027C4.88009 7.55241 3.90508 7.26687 2.9093 7.26769C2.61744 7.26888 2.32619 7.29438 2.03856 7.34393C1.98633 7.35221 1.93625 7.37075 1.89121 7.39846C1.84616 7.42617 1.80704 7.46251 1.77609 7.5054C1.74514 7.54828 1.72297 7.59686 1.71086 7.64834C1.69875 7.69982 1.69693 7.75319 1.70552 7.80537C1.72591 7.90957 1.78677 8.00145 1.87477 8.06086C1.96276 8.12028 2.07072 8.1424 2.17499 8.12237C2.75001 8.02281 3.33913 8.03933 3.90766 8.17095C4.47619 8.30258 5.01263 8.54664 5.48538 8.88877C5.55334 8.93716 5.63469 8.96316 5.71811 8.96316C5.80154 8.96316 5.88289 8.93716 5.95084 8.88877C6.4236 8.54664 6.96004 8.30258 7.52857 8.17095C8.0971 8.03933 8.68622 8.02281 9.26123 8.12237C9.36551 8.1424 9.47346 8.12028 9.56146 8.06086C9.64946 8.00145 9.71032 7.90957 9.73071 7.80537C9.7393 7.75319 9.73748 7.69982 9.72537 7.64834C9.71326 7.59686 9.69109 7.54828 9.66014 7.5054C9.62919 7.46251 9.59007 7.42617 9.54502 7.39846C9.49997 7.37075 9.4499 7.35221 9.39766 7.34393Z" fill="#515251"/>
</g>
<defs>
<clipPath id="clip0_3002_396">
<rect width="9.63023" height="9.63023" fill="white" transform="translate(0.903076 0.097168)"/>
</clipPath>
</defs>
</svg>
