<svg width="11" height="7" viewBox="0 0 11 7" fill="none" xmlns="http://www.w3.org/2000/svg">
<g clip-path="url(#clip0_4_4014)">
<path d="M5.33747 0.891957C6.81067 0.886817 8.05807 1.46048 9.17712 2.35542C9.58631 2.68995 9.97061 3.05276 10.3271 3.44106C10.4119 3.53153 10.4287 3.5891 10.3334 3.6914C9.0671 5.04742 7.57032 5.99736 5.6581 6.16391C4.40075 6.2734 3.26651 5.89507 2.22657 5.21603C1.51931 4.75237 0.913162 4.17356 0.355211 3.54592C0.257767 3.43643 0.266149 3.37115 0.362022 3.27091C1.59056 1.97863 3.04333 1.09757 4.86701 0.894013C5.02367 0.884702 5.18074 0.884016 5.33747 0.891957ZM6.91545 3.55672C6.91545 2.59033 6.1579 1.81465 5.21017 1.81311C4.26244 1.81157 3.49074 2.59033 3.49336 3.54952C3.49598 4.50871 4.2792 5.29724 5.2175 5.28388C6.1558 5.27051 6.91545 4.50563 6.91545 3.55672ZM6.39155 5.49463C6.40675 5.49926 6.42404 5.51057 6.43766 5.50748C7.68872 5.20163 8.71766 4.52362 9.63972 3.65953C9.71883 3.58499 9.69525 3.53564 9.62976 3.47036C8.7428 2.58673 7.75369 1.86657 6.50472 1.55198C6.46368 1.53817 6.42188 1.52667 6.37951 1.51754C6.33655 1.51188 6.28678 1.4831 6.24277 1.53142C7.72802 2.37032 7.91086 4.44343 6.39155 5.49463ZM4.00835 1.61572C3.98239 1.61005 3.95581 1.60763 3.92924 1.60852C2.82067 1.93751 1.88185 2.53944 1.0478 3.31615C0.948787 3.40868 0.97603 3.46316 1.05776 3.53924C1.28461 3.75205 1.49836 3.97926 1.73306 4.18281C2.3785 4.739 3.091 5.1893 3.95543 5.45351C2.59749 4.40693 2.68027 2.55846 4.00835 1.61572Z" fill="#D9EBCD"/>
<path d="M5.41397 4.70735C4.8534 4.80553 4.36617 4.55314 4.13828 4.06069C3.90357 3.55385 4.0466 2.93341 4.47619 2.59877C4.66768 2.44828 4.90395 2.36315 5.14919 2.35629C5.39443 2.34942 5.63526 2.4212 5.83518 2.56073C6.31088 2.90154 6.45862 3.486 6.20505 4.0977C6.07198 3.90699 5.93577 3.72708 5.6843 3.72657C5.56089 3.7276 5.44237 3.77401 5.35215 3.85662C5.1143 4.06326 5.13106 4.35626 5.41397 4.70735Z" fill="#D9EBCD"/>
</g>
<defs>
<clipPath id="clip0_4_4014">
<rect width="10.1117" height="5.29662" fill="white" transform="translate(0.285889 0.885864)"/>
</clipPath>
</defs>
</svg>
