<svg width="24" height="24" viewBox="0 0 24 24" fill="none" xmlns="http://www.w3.org/2000/svg">
<rect x="0.630005" y="0.405701" width="23.1125" height="23.1125" rx="5.77814" fill="#F0F7EB"/>
<g clip-path="url(#clip0_4_4038)">
<path d="M6.8606 14.8176C6.8606 12.9566 6.8606 11.0979 6.8606 9.23691C6.86538 9.22974 6.87016 9.22256 6.87256 9.21539C6.94671 8.80874 7.3725 8.50495 7.87722 8.62933C9.28135 8.97857 10.6807 8.92595 12.0657 8.49777C13.6684 8.00022 15.283 7.95477 16.9096 8.37817C17.3354 8.4882 17.5555 8.76568 17.5555 9.20103C17.5555 10.9305 17.5555 12.6576 17.5555 14.387C17.5555 14.4229 17.5555 14.4588 17.5531 14.4946C17.5292 14.9563 17.1058 15.2864 16.6513 15.2027C16.2972 15.1357 15.9432 15.0544 15.5844 15.0113C14.4889 14.8798 13.41 14.985 12.3575 15.3127C10.7309 15.8198 9.09238 15.8629 7.44665 15.4132C7.24572 15.3582 7.08545 15.2505 6.97781 15.0711C6.92997 14.9946 6.89887 14.9037 6.8606 14.8176ZM7.62605 9.37326C7.62366 9.40436 7.62127 9.43545 7.62127 9.46655C7.62127 11.1721 7.62366 12.8752 7.62366 14.5808C7.62366 14.6525 7.6428 14.6836 7.71456 14.7028C8.29344 14.8535 8.88188 14.9396 9.4799 14.9611C10.4319 14.9946 11.3529 14.8295 12.2619 14.5545C13.4627 14.1885 14.6874 14.1071 15.9289 14.2913C16.2159 14.3344 16.4982 14.3942 16.7924 14.4468C16.7924 14.2004 16.7924 13.954 16.7924 13.7101C16.7924 12.227 16.7924 10.7463 16.7924 9.26323C16.7924 9.20103 16.8044 9.14362 16.7135 9.1197C16.1489 8.97379 15.5772 8.88289 14.996 8.86136C14.0583 8.82548 13.1445 8.96422 12.2475 9.2417C11.0108 9.62203 9.75259 9.71772 8.47284 9.52635C8.19297 9.4833 7.9131 9.42349 7.62605 9.37326Z" fill="#11453B"/>
<path d="M15.0711 10.3829C14.8893 10.3829 14.7051 10.3853 14.5233 10.3829C14.2913 10.3805 14.119 10.2202 14.119 10.0025C14.119 9.78484 14.2865 9.62217 14.5209 9.61978C14.8917 9.61738 15.2601 9.61738 15.6309 9.61978C15.8606 9.62217 16.0328 9.78723 16.0304 10.0049C16.028 10.2178 15.8606 10.3781 15.6357 10.3805C15.4443 10.3853 15.2577 10.3829 15.0711 10.3829Z" fill="#11453B"/>
<path d="M9.3443 14.1981C9.16249 14.1981 8.97829 14.2005 8.79648 14.1981C8.56204 14.1958 8.39219 14.0355 8.3898 13.8202C8.3874 13.6025 8.55725 13.4374 8.7893 13.435C9.1601 13.4326 9.5285 13.4326 9.8993 13.435C10.1314 13.435 10.3012 13.6025 10.2988 13.8178C10.2964 14.0331 10.1266 14.1934 9.89452 14.1958C9.71032 14.1981 9.52611 14.1981 9.3443 14.1981Z" fill="#11453B"/>
<g clip-path="url(#clip1_4_4038)">
<path d="M12.8262 10.8402C12.8262 10.7438 12.8286 10.6471 12.8262 10.5507C12.8244 10.4997 12.8436 10.4858 12.892 10.4865C13.0294 10.4891 13.167 10.4901 13.3042 10.4865C13.3627 10.4849 13.3793 10.5046 13.3784 10.5614C13.3754 10.7426 13.38 10.924 13.3761 11.1054C13.3747 11.1719 13.3903 11.199 13.4627 11.1962C13.6204 11.1925 13.6207 11.1962 13.6207 11.3587C13.6207 11.4551 13.6186 11.5518 13.6207 11.6482C13.6221 11.695 13.6097 11.7137 13.5579 11.7147C13.3768 11.7184 13.3768 11.7208 13.3768 11.9064C13.3768 11.997 13.3791 12.0878 13.3768 12.1784C13.3751 12.228 13.392 12.243 13.4416 12.2446C13.6207 12.2498 13.6207 12.2516 13.6207 12.4293C13.6207 12.5199 13.6186 12.6107 13.6207 12.7013C13.6223 12.7504 13.6059 12.7656 13.5558 12.7666C13.3765 12.7703 13.3768 12.7724 13.3768 12.9513C13.3768 13.0886 13.3747 13.2263 13.3768 13.3634C13.3768 13.4177 13.3587 13.4337 13.3065 13.4325C13.1546 13.4294 13.0023 13.4292 12.8504 13.4325C12.829 13.4346 12.8075 13.43 12.7887 13.4195C12.77 13.409 12.7549 13.3931 12.7455 13.3737C12.6369 13.1935 12.5236 13.0161 12.4159 12.8354C12.386 12.7848 12.3539 12.7621 12.2921 12.7633C12.0845 12.7677 11.8769 12.7668 11.6693 12.7633C11.6117 12.7633 11.5948 12.7799 11.596 12.837C11.5995 13.0095 11.5946 13.182 11.5986 13.3545C11.6 13.4173 11.5796 13.4341 11.519 13.432C11.3874 13.4278 11.2557 13.4269 11.1244 13.432C11.0553 13.4351 11.041 13.4086 11.0422 13.3466C11.0459 13.1799 11.0406 13.0133 11.0448 12.8466C11.0464 12.7825 11.0303 12.7607 10.9626 12.7624C10.807 12.7661 10.8067 12.7624 10.8067 12.6086C10.8067 12.5063 10.8086 12.4038 10.8067 12.3015C10.8067 12.2547 10.8229 12.2427 10.8676 12.2411C11.0443 12.2341 11.0443 12.2324 11.0443 12.0538C11.0443 11.9633 11.0417 11.8724 11.0443 11.7819C11.0462 11.7294 11.03 11.7116 10.9755 11.7116C10.8067 11.71 10.8067 11.7077 10.8067 11.5356C10.8067 11.445 10.8095 11.3542 10.8067 11.2636C10.8044 11.2103 10.8212 11.1934 10.8755 11.1934C11.0448 11.1908 11.0448 11.1883 11.0448 11.0146C11.0448 10.8625 11.0464 10.7103 11.0448 10.5584C11.0448 10.5071 11.0574 10.4854 11.1136 10.4868C11.2627 10.4903 11.4118 10.4898 11.5609 10.4868C11.581 10.4852 11.601 10.4897 11.6184 10.4999C11.6358 10.51 11.6497 10.5252 11.6583 10.5434C11.7753 10.7386 11.8975 10.9315 12.0145 11.1272C12.0431 11.174 12.0733 11.1974 12.1315 11.1974C12.3392 11.1937 12.5468 11.1941 12.7544 11.1974C12.8115 11.1974 12.8314 11.1808 12.8288 11.1227C12.8244 11.0291 12.8288 10.9355 12.8288 10.8419L12.8262 10.8402ZM12.3733 11.7133C12.4822 11.8909 12.5819 12.0545 12.683 12.2175C12.7109 12.2622 12.7574 12.2423 12.7956 12.2409C12.8424 12.239 12.8251 12.1978 12.8253 12.1723C12.8269 12.0407 12.8253 11.9092 12.8253 11.7776C12.8253 11.7458 12.8314 11.7121 12.7801 11.7128C12.6507 11.7145 12.5203 11.7133 12.3733 11.7133ZM12.0473 12.2427L11.7374 11.7404C11.7093 11.6948 11.6636 11.7135 11.626 11.7152C11.5791 11.7175 11.5983 11.7589 11.5981 11.7837C11.5962 11.915 11.5981 12.0464 11.5981 12.1777C11.5981 12.2086 11.5897 12.2439 11.6419 12.2432C11.7711 12.2418 11.901 12.2427 12.0473 12.2427Z" fill="#11453B"/>
</g>
</g>
<defs>
<clipPath id="clip0_4_4038">
<rect width="10.6925" height="7.63544" fill="white" transform="translate(6.8606 8.09137)"/>
</clipPath>
<clipPath id="clip1_4_4038">
<rect width="2.81487" height="2.94712" fill="white" transform="translate(10.8029 10.486)"/>
</clipPath>
</defs>
</svg>
