<svg width="11" height="12" viewBox="0 0 11 12" fill="none" xmlns="http://www.w3.org/2000/svg">
<g clip-path="url(#clip0_3002_372)">
<path d="M6.61932 0.814148C6.82426 0.854332 7.03322 0.880452 7.23414 0.93872C8.42963 1.27627 9.32374 2.33312 9.47041 3.56679C9.65928 5.16613 8.6627 6.62885 7.11961 7.01663C5.39168 7.45063 3.61954 6.30135 3.31012 4.54528C3.04088 3.02631 3.83453 1.58368 5.25907 1.02914C5.51424 0.930683 5.79352 0.896526 6.06276 0.832231C6.08888 0.826203 6.115 0.820176 6.13911 0.814148C6.29784 0.814148 6.45858 0.814148 6.61932 0.814148ZM8.89376 3.95859C8.88974 2.54811 7.75855 1.41089 6.36414 1.41692C4.97778 1.42093 3.8506 2.57021 3.85462 3.97064C3.85864 5.37108 4.99586 6.51232 6.38223 6.5083C7.76659 6.50428 8.89778 5.35701 8.89376 3.95859Z" fill="#515251"/>
<path d="M2.16286 8.12762C2.18295 8.04524 2.19501 7.97291 2.21912 7.90459C2.35776 7.51279 2.65311 7.31991 3.04692 7.2315C3.718 7.08081 4.35694 7.14912 4.97377 7.46457C5.19479 7.57709 5.42786 7.67554 5.66495 7.75591C5.8076 7.80413 5.96432 7.82222 6.11702 7.82824C6.42041 7.83829 6.72582 7.83025 7.02921 7.83226C7.25023 7.83226 7.36877 7.95482 7.36274 8.17584C7.3547 8.47521 7.26027 8.74445 7.07944 9.00766C7.22812 9.00766 7.36274 9.01168 7.49535 9.00565C7.52147 9.00364 7.54759 8.96748 7.5717 8.94336C7.85299 8.66207 8.13228 8.37877 8.41558 8.1015C8.9641 7.56503 9.82605 7.54896 10.3967 8.06131C10.5775 8.22406 10.5835 8.39886 10.4127 8.56965C9.70952 9.27489 9.00428 9.97812 8.30105 10.6813C8.02981 10.9526 7.7023 11.0852 7.32055 11.0852C5.29927 11.0852 3.27798 11.0852 1.2567 11.0852C1.0176 11.0812 0.903076 10.9667 0.903076 10.7296C0.903076 9.97812 0.903076 9.22667 0.903076 8.47321C0.903076 8.23813 1.01559 8.12762 1.25469 8.12762C1.55407 8.12561 1.85545 8.12762 2.16286 8.12762ZM2.76965 10.4804C2.81787 10.4804 2.85404 10.4804 2.8902 10.4804C4.35292 10.4804 5.81765 10.4784 7.28036 10.4824C7.52549 10.4824 7.72641 10.4021 7.89921 10.2273C8.49796 9.62449 9.09871 9.02574 9.69947 8.42498C9.71957 8.40489 9.73564 8.38279 9.75975 8.35667C9.73564 8.34662 9.72157 8.33658 9.7055 8.33256C9.36594 8.22607 9.06657 8.29639 8.8114 8.54755C8.508 8.84893 8.2026 9.14831 7.90523 9.45572C7.79874 9.56422 7.68422 9.61244 7.53353 9.61043C6.59522 9.60641 5.6549 9.60641 4.71659 9.60641C4.59202 9.60641 4.46945 9.60842 4.34488 9.60239C4.22835 9.59636 4.14396 9.53207 4.09574 9.42759C4.04953 9.32512 4.05957 9.22466 4.12588 9.13223C4.1962 9.03177 4.29867 9.00163 4.41521 9.00163C4.85924 9.00364 5.30328 9.00364 5.74933 9.00364C5.83573 9.00364 5.92414 9.00364 6.00852 8.9956C6.31593 8.96145 6.61933 8.7123 6.69568 8.429C6.51284 8.429 6.33402 8.42699 6.1552 8.429C5.8719 8.43302 5.59462 8.38882 5.33342 8.28032C5.09232 8.18187 4.85322 8.0794 4.62015 7.96286C4.11985 7.71573 3.6075 7.69965 3.07907 7.84432C2.86207 7.90258 2.76965 8.02716 2.76965 8.25018C2.76965 8.78062 2.76965 9.31306 2.76965 9.8435C2.76965 10.0525 2.76965 10.2594 2.76965 10.4804ZM2.16286 10.4744C2.16286 9.88971 2.16286 9.31306 2.16286 8.7344C1.94185 8.7344 1.72887 8.7344 1.50986 8.7344C1.50986 9.31708 1.50986 9.89373 1.50986 10.4744C1.72887 10.4744 1.94185 10.4744 2.16286 10.4744Z" fill="#515251"/>
<g clip-path="url(#clip1_3002_372)">
<path d="M6.86913 3.06113C6.86913 2.98359 6.87101 2.90586 6.86913 2.82832C6.86762 2.78729 6.88305 2.77618 6.92201 2.77675C7.03249 2.77882 7.14315 2.77957 7.25344 2.77675C7.30049 2.77543 7.31386 2.79124 7.3131 2.83697C7.31066 2.98264 7.31442 3.1285 7.31122 3.27436C7.31009 3.32781 7.3227 3.34965 7.38086 3.34739C7.50771 3.34438 7.5079 3.34739 7.5079 3.478C7.5079 3.55554 7.5062 3.63327 7.5079 3.71081C7.50903 3.74845 7.49905 3.76351 7.45746 3.76426C7.31179 3.76727 7.31179 3.76916 7.31179 3.9184C7.31179 3.99124 7.31367 4.06426 7.31179 4.1371C7.31047 4.177 7.32402 4.18904 7.36392 4.19036C7.5079 4.1945 7.5079 4.19601 7.5079 4.33886C7.5079 4.41169 7.5062 4.48472 7.5079 4.55755C7.50921 4.59707 7.49604 4.60931 7.45576 4.61006C7.3116 4.61307 7.31179 4.61477 7.31179 4.75855C7.31179 4.86903 7.31009 4.9797 7.31179 5.08999C7.31179 5.13365 7.29729 5.14645 7.25532 5.14551C7.13318 5.14306 7.01066 5.14287 6.88851 5.14551C6.87132 5.14717 6.85402 5.14354 6.83895 5.13509C6.82388 5.12665 6.81175 5.1138 6.80419 5.09827C6.71687 4.95335 6.62578 4.81069 6.5392 4.66539C6.51511 4.62474 6.48933 4.60648 6.43964 4.60743C6.2727 4.611 6.10576 4.61025 5.93882 4.60743C5.89253 4.60743 5.87898 4.62079 5.87992 4.66671C5.88274 4.80542 5.87879 4.94413 5.88199 5.08283C5.88312 5.13327 5.86674 5.14682 5.818 5.14513C5.71222 5.14174 5.60626 5.14099 5.50068 5.14513C5.44516 5.14758 5.43368 5.12631 5.43462 5.07643C5.43763 4.94243 5.4333 4.80843 5.43669 4.67443C5.43801 4.62286 5.42502 4.60536 5.37063 4.60667C5.24547 4.60968 5.24529 4.60667 5.24529 4.48302C5.24529 4.40078 5.24679 4.31834 5.24529 4.2361C5.24529 4.19845 5.25827 4.18886 5.29422 4.18754C5.43631 4.18189 5.43631 4.18057 5.43631 4.03697C5.43631 3.96414 5.43424 3.89111 5.43631 3.81828C5.43782 3.77612 5.42483 3.76182 5.38098 3.76182C5.24529 3.7605 5.24529 3.75862 5.24529 3.62029C5.24529 3.54745 5.24754 3.47443 5.24529 3.40159C5.2434 3.35868 5.25695 3.34513 5.30062 3.34513C5.43669 3.34306 5.43669 3.34099 5.43669 3.20134C5.43669 3.07901 5.43801 2.95667 5.43669 2.83453C5.43669 2.79331 5.44685 2.77581 5.49202 2.77694C5.61191 2.77976 5.7318 2.77938 5.85169 2.77694C5.86782 2.77564 5.88397 2.77931 5.89796 2.78745C5.91195 2.79559 5.92312 2.80782 5.92998 2.82248C6.02408 2.97945 6.12232 3.13453 6.21643 3.29187C6.23939 3.32951 6.26367 3.34833 6.31053 3.34833C6.47747 3.34532 6.64441 3.34569 6.81135 3.34833C6.85727 3.34833 6.87327 3.33497 6.8712 3.28829C6.86762 3.21301 6.8712 3.13773 6.8712 3.06244L6.86913 3.06113ZM6.50495 3.76313C6.59246 3.90598 6.67264 4.03754 6.75394 4.16853C6.77634 4.20448 6.81379 4.18848 6.84447 4.18735C6.88211 4.18584 6.86818 4.15272 6.86837 4.13221C6.86969 4.02643 6.86837 3.92066 6.86837 3.81489C6.86837 3.7893 6.87327 3.76219 6.83205 3.76276C6.72797 3.76408 6.62314 3.76313 6.50495 3.76313ZM6.24278 4.18886L5.99359 3.78497C5.97101 3.74827 5.93431 3.76332 5.90401 3.76464C5.86637 3.76652 5.8818 3.79983 5.88161 3.81978C5.8801 3.92537 5.88161 4.03095 5.88161 4.13653C5.88161 4.16138 5.87483 4.1898 5.9168 4.18923C6.02069 4.1881 6.12515 4.18886 6.24278 4.18886Z" fill="#515251"/>
</g>
</g>
<defs>
<clipPath id="clip0_3002_372">
<rect width="9.63023" height="10.2671" fill="white" transform="translate(0.903076 0.814148)"/>
</clipPath>
<clipPath id="clip1_3002_372">
<rect width="2.26336" height="2.3697" fill="white" transform="translate(5.2439 2.77643)"/>
</clipPath>
</defs>
</svg>
