<svg width="132" height="74" viewBox="0 0 132 74" fill="none" xmlns="http://www.w3.org/2000/svg">
<path d="M131.061 0.89624H0.0907145V36.2154C-3.8683 37.3181 -7.70483 38.7404 -11.3916 40.5438L-6.29674 73.4609C16.7675 62.1791 45.6923 65.8096 73.8064 69.3384C98.6632 72.4583 122.886 75.4987 141.865 68.0827L136.77 35.1656C134.916 35.8901 133.011 36.5149 131.061 37.0495V0.89624Z" fill="#11453B"/>
<mask id="mask0_4_4087" style="mask-type:alpha" maskUnits="userSpaceOnUse" x="-12" y="0" width="154" height="74">
<path d="M131.057 0.896484H0.086442V36.2157C-3.87258 37.3183 -7.7091 38.7406 -11.3959 40.544L-6.30101 73.4612C16.7632 62.1794 45.688 65.8099 73.8021 69.3386C98.659 72.4585 122.882 75.4989 141.861 68.083L136.766 35.1658C134.911 35.8904 133.007 36.5152 131.057 37.0498V0.896484Z" fill="#11453B"/>
</mask>
<g mask="url(#mask0_4_4087)">
<path opacity="0.5" fill-rule="evenodd" clip-rule="evenodd" d="M131.255 43.6824C93.4955 52.0845 41.2389 15.4593 0.0847168 28.2515V57.9251C41.2389 45.1329 93.4955 81.7581 131.255 73.356V43.6824ZM131.255 -4.9866C93.4955 3.41552 41.2389 -33.2328 0.0847168 -20.4406V9.23296C41.2389 -3.55924 93.4955 33.0891 131.255 24.687V-4.9866ZM131.255 92.6601C93.4955 101.062 41.2389 64.437 0.0847168 77.2292V106.903C41.2389 94.1106 93.4955 130.736 131.255 122.334V92.6601Z" fill="#175B4E"/>
</g>
<g clip-path="url(#clip0_4_4087)">
<path d="M52.5324 38.0595C52.5096 39.2421 51.7479 40.0268 50.497 40.0268C49.7011 40.0268 49.2119 39.6402 49.2119 39.026C49.2119 38.2984 49.7805 37.8889 50.7812 37.8889H52.5324V38.0595H52.5324ZM55.4434 39.6402C55.0682 39.6402 54.8862 39.549 54.8862 39.0942V36.0126C54.8862 33.9203 53.4764 32.8402 51.0429 32.8402C48.7345 32.8402 47.1768 33.9545 47.0062 35.6487H49.3144C49.4168 35.012 50.0423 34.5914 50.9746 34.5914C51.9752 34.5914 52.5325 35.0917 52.5325 35.8763V36.2971H50.804C48.1886 36.2971 46.8015 37.3432 46.8015 39.1965C46.8015 40.8568 48.1546 41.755 50.0423 41.755C51.3954 41.755 52.2824 41.198 52.885 40.2315C52.8736 41.0616 53.2603 41.6528 54.4997 41.6528H55.7163V39.6402H55.4435H55.4434Z" fill="white"/>
<path d="M56.6486 34.9553H60.8103L56.4553 40.0268V41.6529H64.2333V39.6402H59.6733L64.0285 34.5686V32.9426H56.6486V34.9553Z" fill="white"/>
<path d="M64.9382 41.6528H67.3489V32.9425H64.9382V41.6528Z" fill="white"/>
<path d="M66.1435 32.0101C66.9169 32.0101 67.5308 31.4301 67.5308 30.6683C67.5308 29.895 66.9168 29.315 66.1435 29.315C65.359 29.315 64.7562 29.895 64.7562 30.6683C64.7562 31.4301 65.359 32.0101 66.1435 32.0101Z" fill="white"/>
<path fill-rule="evenodd" clip-rule="evenodd" d="M72.7957 39.8107C71.4879 39.8107 70.6692 38.7759 70.6692 37.275C70.6692 35.808 71.4879 34.7846 72.7957 34.7846C74.0919 34.7846 74.9448 35.808 74.9448 37.275C74.9448 38.7759 74.0919 39.8107 72.7957 39.8107ZM73.3185 32.8403C72.0793 32.8403 71.2036 33.3974 70.6352 34.1478V32.9425H68.3152V45.0413H70.7031V40.5499C71.2604 41.2661 72.1248 41.7551 73.3302 41.7551C75.6723 41.7551 77.3669 40.0268 77.3669 37.3092C77.3669 34.5685 75.6724 32.8289 73.3186 32.8403H73.3185Z" fill="white"/>
<path d="M83.4276 38.0595C83.4048 39.2421 82.6428 40.0268 81.3921 40.0268C80.596 40.0268 80.107 39.6402 80.107 39.026C80.107 38.2984 80.6757 37.8889 81.6763 37.8889H83.4275V38.0595H83.4276ZM86.3386 39.6402C85.9633 39.6402 85.7814 39.549 85.7814 39.0942V36.0126C85.7814 33.9203 84.3715 32.8402 81.9265 32.8402C79.6296 32.8402 78.0719 33.9545 77.9011 35.6487H80.1982C80.3005 35.012 80.9372 34.5914 81.8583 34.5914C82.859 34.5914 83.4276 35.0917 83.4276 35.8763V36.2971H81.6991C79.0837 36.2971 77.6967 37.3432 77.6967 39.1965C77.6967 40.8568 79.0496 41.755 80.9372 41.755C82.2905 41.755 83.1659 41.198 83.7801 40.2315C83.7571 41.0616 84.1554 41.6528 85.3833 41.6528H86.6114V39.6402H86.3386Z" fill="white"/>
<path d="M89.5793 41.6982L89.3632 42.2782C89.1245 42.8694 88.9198 43.0286 88.3056 43.0286H86.9869V45.0412H89.3065C90.6595 45.0412 91.1031 44.3251 91.6487 42.8922L95.515 32.9426H92.9565L90.8869 39.1397L88.772 32.9426H86.2249L89.5793 41.6982H89.5793Z" fill="white"/>
<path fill-rule="evenodd" clip-rule="evenodd" d="M46.028 39.2763C43.0373 39.9472 38.8983 37.0476 35.6462 38.0596V40.402C38.8983 39.3899 43.0373 42.2896 46.028 41.6187V39.2763Z" fill="white"/>
<path fill-rule="evenodd" clip-rule="evenodd" d="M46.028 35.3987C43.0373 36.0695 38.8983 33.1699 35.6462 34.1819V36.5245C38.8983 35.5123 43.0373 38.4119 46.028 37.7524V35.3986V35.3987Z" fill="white"/>
<path fill-rule="evenodd" clip-rule="evenodd" d="M46.028 31.5554C43.0373 32.2149 38.8983 29.3152 35.6462 30.3273V32.681C38.8983 31.669 43.0373 34.5687 46.028 33.8978V31.5554V31.5554Z" fill="white"/>
</g>
<defs>
<clipPath id="clip0_4_4087">
<rect width="59.8688" height="15.7264" fill="white" transform="translate(35.6462 29.315)"/>
</clipPath>
</defs>
</svg>
