<svg width="24" height="24" viewBox="0 0 24 24" fill="none" xmlns="http://www.w3.org/2000/svg">
<rect x="0.721008" y="0.574707" width="23.1125" height="23.1125" rx="5.77814" fill="#EDF5FF"/>
<g clip-path="url(#clip0_4_4053)">
<path d="M13.1288 7.18567C13.3174 7.22264 13.5096 7.24667 13.6945 7.30028C14.7944 7.61084 15.617 8.58319 15.7519 9.71822C15.9257 11.1897 15.0088 12.5354 13.5891 12.8922C11.9993 13.2915 10.3689 12.2341 10.0842 10.6185C9.83651 9.22095 10.5667 7.89367 11.8773 7.38347C12.1121 7.29289 12.3691 7.26146 12.6168 7.20231C12.6408 7.19676 12.6648 7.19121 12.687 7.18567C12.833 7.18567 12.9809 7.18567 13.1288 7.18567ZM15.2214 10.0787C15.2177 8.78099 14.177 7.7347 12.894 7.74024C11.6185 7.74394 10.5815 8.80132 10.5852 10.0898C10.5889 11.3782 11.6352 12.4282 12.9107 12.4245C14.1844 12.4208 15.2251 11.3653 15.2214 10.0787Z" fill="#2F80ED"/>
<path d="M9.02612 13.9148C9.04461 13.839 9.0557 13.7725 9.07788 13.7096C9.20543 13.3492 9.47717 13.1717 9.83949 13.0904C10.4569 12.9517 11.0448 13.0146 11.6123 13.3048C11.8156 13.4083 12.0301 13.4989 12.2482 13.5728C12.3794 13.6172 12.5236 13.6338 12.6641 13.6394C12.9432 13.6486 13.2242 13.6412 13.5034 13.6431C13.7067 13.6431 13.8158 13.7558 13.8102 13.9592C13.8028 14.2346 13.716 14.4823 13.5496 14.7245C13.6864 14.7245 13.8102 14.7282 13.9322 14.7227C13.9563 14.7208 13.9803 14.6875 14.0025 14.6653C14.2613 14.4065 14.5182 14.1459 14.7789 13.8908C15.2835 13.3972 16.0766 13.3824 16.6016 13.8538C16.7679 14.0036 16.7735 14.1644 16.6164 14.3215C15.9694 14.9704 15.3205 15.6174 14.6735 16.2644C14.424 16.5139 14.1226 16.6359 13.7714 16.6359C11.9117 16.6359 10.0521 16.6359 8.19241 16.6359C7.97243 16.6322 7.86707 16.5269 7.86707 16.3087C7.86707 15.6174 7.86707 14.926 7.86707 14.2328C7.86707 14.0165 7.97059 13.9148 8.19057 13.9148C8.466 13.913 8.74329 13.9148 9.02612 13.9148ZM9.58439 16.0795C9.62876 16.0795 9.66203 16.0795 9.69531 16.0795C11.0411 16.0795 12.3887 16.0777 13.7344 16.0814C13.96 16.0814 14.1448 16.0074 14.3038 15.8466C14.8547 15.292 15.4074 14.7411 15.9601 14.1884C15.9786 14.1699 15.9934 14.1496 16.0156 14.1256C15.9934 14.1163 15.9805 14.1071 15.9657 14.1034C15.6533 14.0054 15.3778 14.0701 15.1431 14.3012C14.8639 14.5785 14.5829 14.8539 14.3093 15.1367C14.2114 15.2366 14.106 15.2809 13.9674 15.2791C13.1041 15.2754 12.2389 15.2754 11.3757 15.2754C11.261 15.2754 11.1483 15.2772 11.0337 15.2717C10.9265 15.2661 10.8488 15.207 10.8044 15.1109C10.7619 15.0166 10.7712 14.9241 10.8322 14.8391C10.8969 14.7467 10.9912 14.719 11.0984 14.719C11.5069 14.7208 11.9154 14.7208 12.3258 14.7208C12.4053 14.7208 12.4867 14.7208 12.5643 14.7134C12.8471 14.682 13.1263 14.4528 13.1965 14.1921C13.0283 14.1921 12.8638 14.1903 12.6992 14.1921C12.4386 14.1958 12.1835 14.1551 11.9432 14.0553C11.7213 13.9647 11.5014 13.8705 11.2869 13.7632C10.8266 13.5359 10.3552 13.5211 9.86907 13.6542C9.66943 13.7078 9.58439 13.8224 9.58439 14.0276C9.58439 14.5156 9.58439 15.0055 9.58439 15.4935C9.58439 15.6858 9.58439 15.8762 9.58439 16.0795ZM9.02612 16.074C9.02612 15.536 9.02612 15.0055 9.02612 14.4731C8.82278 14.4731 8.62683 14.4731 8.42533 14.4731C8.42533 15.0092 8.42533 15.5397 8.42533 16.074C8.62683 16.074 8.82278 16.074 9.02612 16.074Z" fill="#2F80ED"/>
<g clip-path="url(#clip1_4_4053)">
<path d="M13.3562 9.25329C13.3562 9.18195 13.3579 9.11043 13.3562 9.03909C13.3548 9.00134 13.369 8.99113 13.4048 8.99165C13.5065 8.99355 13.6083 8.99424 13.7097 8.99165C13.753 8.99043 13.7653 9.00498 13.7646 9.04706C13.7624 9.18108 13.7658 9.31528 13.7629 9.44947C13.7619 9.49865 13.7735 9.51874 13.827 9.51666C13.9437 9.51389 13.9439 9.51666 13.9439 9.63683C13.9439 9.70817 13.9423 9.77969 13.9439 9.85103C13.9449 9.88566 13.9357 9.89951 13.8974 9.9002C13.7634 9.90297 13.7634 9.90471 13.7634 10.042C13.7634 10.109 13.7652 10.1762 13.7634 10.2432C13.7622 10.2799 13.7747 10.291 13.8114 10.2922C13.9439 10.296 13.9439 10.2974 13.9439 10.4289C13.9439 10.4959 13.9423 10.563 13.9439 10.6301C13.9451 10.6664 13.9329 10.6777 13.8959 10.6784C13.7632 10.6811 13.7634 10.6827 13.7634 10.815C13.7634 10.9166 13.7619 11.0185 13.7634 11.1199C13.7634 11.1601 13.7501 11.1719 13.7115 11.171C13.5991 11.1688 13.4864 11.1686 13.374 11.171C13.3582 11.1725 13.3423 11.1692 13.3284 11.1614C13.3145 11.1537 13.3034 11.1418 13.2964 11.1275C13.2161 10.9942 13.1323 10.863 13.0526 10.7293C13.0304 10.6919 13.0067 10.6751 12.961 10.6759C12.8074 10.6792 12.6538 10.6785 12.5002 10.6759C12.4576 10.6759 12.4452 10.6882 12.446 10.7305C12.4486 10.8581 12.445 10.9857 12.4479 11.1133C12.449 11.1597 12.4339 11.1722 12.3891 11.1707C12.2918 11.1675 12.1943 11.1668 12.0971 11.1707C12.046 11.1729 12.0355 11.1533 12.0364 11.1075C12.0391 10.9842 12.0351 10.8609 12.0383 10.7376C12.0395 10.6901 12.0275 10.674 11.9775 10.6753C11.8623 10.678 11.8622 10.6753 11.8622 10.5615C11.8622 10.4858 11.8635 10.41 11.8622 10.3343C11.8622 10.2997 11.8741 10.2908 11.9072 10.2896C12.0379 10.2844 12.0379 10.2832 12.0379 10.1511C12.0379 10.0841 12.036 10.0169 12.0379 9.9499C12.0393 9.91111 12.0273 9.89795 11.987 9.89795C11.8622 9.89674 11.8622 9.89501 11.8622 9.76774C11.8622 9.70073 11.8642 9.63354 11.8622 9.56653C11.8604 9.52705 11.8729 9.51458 11.9131 9.51458C12.0383 9.51268 12.0383 9.51077 12.0383 9.38229C12.0383 9.26974 12.0395 9.15718 12.0383 9.04481C12.0383 9.00688 12.0476 8.99078 12.0892 8.99182C12.1995 8.99442 12.3098 8.99407 12.4201 8.99182C12.4349 8.99063 12.4498 8.99401 12.4626 9.0015C12.4755 9.00899 12.4858 9.02023 12.4921 9.03372C12.5787 9.17814 12.6691 9.32082 12.7556 9.46558C12.7768 9.50021 12.7991 9.51753 12.8422 9.51753C12.9958 9.51475 13.1494 9.5151 13.303 9.51753C13.3452 9.51753 13.36 9.50523 13.3581 9.46229C13.3548 9.39302 13.3581 9.32376 13.3581 9.2545L13.3562 9.25329ZM13.0211 9.89916C13.1016 10.0306 13.1754 10.1516 13.2502 10.2721C13.2708 10.3052 13.3052 10.2905 13.3335 10.2895C13.3681 10.2881 13.3553 10.2576 13.3555 10.2387C13.3567 10.1414 13.3555 10.0441 13.3555 9.94678C13.3555 9.92323 13.36 9.8983 13.322 9.89882C13.2263 9.90003 13.1298 9.89916 13.0211 9.89916ZM12.7799 10.2908L12.5506 9.91925C12.5298 9.88548 12.4961 9.89934 12.4682 9.90055C12.4336 9.90228 12.4478 9.93293 12.4476 9.95128C12.4462 10.0484 12.4476 10.1456 12.4476 10.2427C12.4476 10.2656 12.4414 10.2917 12.48 10.2912C12.5756 10.2902 12.6717 10.2908 12.7799 10.2908Z" fill="#2F80ED"/>
</g>
</g>
<defs>
<clipPath id="clip0_4_4053">
<rect width="8.86021" height="9.44621" fill="white" transform="translate(7.86591 7.18579)"/>
</clipPath>
<clipPath id="clip1_4_4053">
<rect width="2.08239" height="2.18022" fill="white" transform="translate(11.862 8.99133)"/>
</clipPath>
</defs>
</svg>
