<svg width="10" height="10" viewBox="0 0 10 10" fill="none" xmlns="http://www.w3.org/2000/svg">
<g clip-path="url(#clip0_3002_360)">
<path d="M7.22602 8.41172C5.36039 8.41172 3.49316 8.41172 1.62753 8.41172C1.61791 8.40695 1.6083 8.40217 1.59868 8.39898C1.16753 8.31618 0.903076 8.00568 0.903076 7.57576C0.903076 5.41816 0.903076 3.25898 0.903076 1.10138C0.903076 0.612541 1.24767 0.273376 1.73972 0.273376C2.9418 0.274969 4.14388 0.281338 5.34596 0.28293C5.54311 0.28293 5.70659 0.3514 5.84763 0.48834C6.4663 1.08705 7.08658 1.68417 7.71006 2.27811C7.85911 2.41982 7.92643 2.58224 7.92643 2.78606C7.92322 3.8959 7.92483 5.00575 7.92483 6.1156C7.92483 6.60603 7.92643 7.09487 7.92483 7.58531C7.92322 7.9611 7.71166 8.26523 7.37828 8.37192C7.3286 8.38625 7.27731 8.39739 7.22602 8.41172ZM5.17447 0.923043C5.13921 0.921451 5.11356 0.918266 5.08792 0.918266C3.99002 0.915081 2.89052 0.910304 1.79262 0.90712C1.58425 0.90712 1.54258 0.94852 1.54258 1.15074C1.54258 3.27331 1.54258 5.39428 1.54258 7.51684C1.54258 7.54391 1.54258 7.56939 1.54258 7.59646C1.54579 7.69518 1.6115 7.76365 1.71248 7.77161C1.73652 7.7732 1.76056 7.77161 1.7846 7.77161C3.54445 7.77161 5.30429 7.77161 7.06414 7.77161C7.24044 7.77161 7.28532 7.72543 7.28532 7.55028C7.28532 6.04235 7.28532 4.53602 7.28532 3.02809C7.28532 2.99943 7.28532 2.97236 7.28532 2.93892C7.24365 2.93892 7.2148 2.93892 7.18595 2.93892C6.79327 2.93892 6.40219 2.93892 6.00951 2.93892C5.51906 2.93733 5.17447 2.59498 5.17286 2.10932C5.17126 1.74309 5.17286 1.37845 5.17286 1.01221C5.17447 0.986736 5.17447 0.958074 5.17447 0.923043ZM5.81397 1.34023C5.81397 1.61093 5.81397 1.85933 5.81397 2.10773C5.81397 2.24308 5.87648 2.30518 6.01432 2.30518C6.25955 2.30677 6.50477 2.30518 6.74999 2.30518C6.76602 2.30518 6.78205 2.3004 6.8093 2.29562C6.47752 1.97716 6.15536 1.66825 5.81397 1.34023Z" fill="#515251"/>
<path d="M4.41404 6.8725C5.0794 6.8725 5.7429 6.8725 6.40825 6.8725C6.64562 6.8725 6.81009 6.7091 6.80261 6.48814C6.797 6.32846 6.68113 6.18363 6.52413 6.14649C6.47928 6.13535 6.43255 6.13163 6.38583 6.13163C5.07193 6.13163 3.75803 6.13163 2.44413 6.13163C2.22733 6.13163 2.08155 6.23933 2.03856 6.42687C1.98997 6.63297 2.14322 6.8465 2.35442 6.86878C2.39741 6.8725 2.44039 6.8725 2.48525 6.8725C3.12818 6.8725 3.77111 6.8725 4.41404 6.8725Z" fill="#515251"/>
<path d="M3.93212 5.39071C4.43861 5.39071 4.94511 5.39257 5.4516 5.38885C5.73195 5.387 5.91324 5.12147 5.80297 4.87638C5.73008 4.71298 5.59552 4.64799 5.4217 4.64799C4.94698 4.64799 4.47038 4.64799 3.99566 4.64799C3.47608 4.64799 2.95837 4.64799 2.43879 4.64799C2.24255 4.64799 2.10051 4.74269 2.04631 4.90237C1.96594 5.14376 2.13976 5.38514 2.40328 5.387C2.84436 5.39071 3.28545 5.38885 3.72653 5.38885C3.79568 5.39071 3.86483 5.39071 3.93212 5.39071Z" fill="#515251"/>
<path d="M3.45357 3.90719C3.80494 3.90719 4.15444 3.90905 4.50581 3.90533C4.67402 3.90348 4.80672 3.79207 4.8497 3.63053C4.89082 3.48198 4.83475 3.31673 4.69832 3.23503C4.63477 3.19789 4.5544 3.16818 4.48151 3.16818C3.79186 3.16261 3.1022 3.16447 2.41441 3.16633C2.21069 3.16633 2.0593 3.30002 2.03127 3.48941C2.0051 3.66209 2.11724 3.83663 2.29293 3.88862C2.34152 3.90348 2.39759 3.90533 2.44992 3.90533C2.78447 3.90905 3.11902 3.90719 3.45357 3.90719Z" fill="#515251"/>
</g>
<defs>
<clipPath id="clip0_3002_360">
<rect width="8.19178" height="9.4901" fill="white" transform="translate(0.903076 0.273376)"/>
</clipPath>
</defs>
</svg>
