<svg width="48" height="49" viewBox="0 0 48 49" fill="none" xmlns="http://www.w3.org/2000/svg">
<circle cx="24" cy="24.5088" r="24" fill="#F2F1F1"/>
<path d="M29.0499 32.7888C28.0699 33.7388 26.9999 33.5888 25.9699 33.1388C24.8799 32.6788 23.8799 32.6588 22.7299 33.1388C21.2899 33.7588 20.5299 33.5788 19.6699 32.7888C14.7899 27.7588 15.5099 20.0988 21.0499 19.8188C22.3999 19.8888 23.3399 20.5588 24.1299 20.6188C25.3099 20.3788 26.4399 19.6888 27.6999 19.7788C29.2099 19.8988 30.3499 20.4988 31.0999 21.5788C27.9799 23.4488 28.7199 27.5588 31.5799 28.7088C31.0099 30.2088 30.2699 31.6988 29.0399 32.7988L29.0499 32.7888ZM24.0299 19.7588C23.8799 17.5288 25.6899 15.6888 27.7699 15.5088C28.0599 18.0888 25.4299 20.0088 24.0299 19.7588Z" fill="black"/>
</svg>
