<svg width="48" height="49" viewBox="0 0 48 49" fill="none" xmlns="http://www.w3.org/2000/svg">
<circle cx="24" cy="24.501" r="24" fill="#F2F1F1"/>
<path d="M29.0499 32.781C28.0699 33.731 26.9999 33.581 25.9699 33.131C24.8799 32.671 23.8799 32.651 22.7299 33.131C21.2899 33.751 20.5299 33.571 19.6699 32.781C14.7899 27.751 15.5099 20.091 21.0499 19.811C22.3999 19.881 23.3399 20.551 24.1299 20.611C25.3099 20.371 26.4399 19.681 27.6999 19.771C29.2099 19.891 30.3499 20.491 31.0999 21.571C27.9799 23.441 28.7199 27.551 31.5799 28.701C31.0099 30.201 30.2699 31.691 29.0399 32.791L29.0499 32.781ZM24.0299 19.751C23.8799 17.521 25.6899 15.681 27.7699 15.501C28.0599 18.081 25.4299 20.001 24.0299 19.751Z" fill="black"/>
</svg>
