<svg width="11" height="10" viewBox="0 0 11 10" fill="none" xmlns="http://www.w3.org/2000/svg">
<g clip-path="url(#clip0_4_4035)">
<path d="M8.07578 3.10352V4.3073M8.07578 4.3073V5.51108M8.07578 4.3073H9.27955M8.07578 4.3073H6.872M5.96916 2.6521C5.96916 3.40003 5.36285 4.00635 4.61491 4.00635C3.86698 4.00635 3.26066 3.40003 3.26066 2.6521C3.26066 1.90417 3.86698 1.29785 4.61491 1.29785C5.36285 1.29785 5.96916 1.90417 5.96916 2.6521ZM2.05725 7.81203C2.05701 7.79743 2.05688 7.78281 2.05688 7.76816C2.05688 6.3554 3.20215 5.21013 4.61491 5.21013C6.02767 5.21013 7.17294 6.3554 7.17294 7.76816V7.76918C7.17294 7.78349 7.17281 7.79777 7.17257 7.81203C6.42554 8.26181 5.55044 8.52052 4.61491 8.52052C3.67939 8.52052 2.80429 8.26181 2.05725 7.81203Z" stroke="#EA4E4B" stroke-width="0.708466" stroke-linecap="round" stroke-linejoin="round"/>
</g>
<defs>
<clipPath id="clip0_4_4035">
<rect width="9.63023" height="9.63023" fill="white" transform="translate(0.853027 0.0940552)"/>
</clipPath>
</defs>
</svg>
