<svg width="11" height="10" viewBox="0 0 11 10" fill="none" xmlns="http://www.w3.org/2000/svg">
<g clip-path="url(#clip0_3002_139)">
<path d="M5.4571 1.70721C5.43114 1.79141 5.41716 1.88086 5.41716 1.97357C5.41716 2.13978 5.5519 2.27452 5.71811 2.27452H7.52377C7.68998 2.27452 7.82472 2.13978 7.82472 1.97357C7.82472 1.88086 7.81074 1.79141 7.78478 1.70721M5.4571 1.70721C5.57074 1.33861 5.91409 1.07074 6.31999 1.07074H6.92188C7.32779 1.07074 7.67113 1.33861 7.78478 1.70721M5.4571 1.70721C5.30636 1.7162 5.15609 1.72692 5.00631 1.73935C4.55244 1.77702 4.21338 2.16346 4.21338 2.61889V3.4783M7.78478 1.70721C7.93552 1.7162 8.08579 1.72692 8.23557 1.73935C8.68943 1.77702 9.0285 2.16346 9.0285 2.61889V6.78869C9.0285 7.28731 8.62428 7.69152 8.12566 7.69152H7.22283M4.21338 3.4783H2.85913C2.60982 3.4783 2.40771 3.6804 2.40771 3.92971V8.44388C2.40771 8.69319 2.60982 8.8953 2.85913 8.8953H6.77141C7.02072 8.8953 7.22283 8.69319 7.22283 8.44388V7.69152M4.21338 3.4783H6.77141C7.02072 3.4783 7.22283 3.6804 7.22283 3.92971V7.69152M3.91244 6.48774L4.51433 7.08963L5.71811 5.58491" stroke="#515251" stroke-width="0.625965" stroke-linecap="round" stroke-linejoin="round"/>
</g>
<defs>
<clipPath id="clip0_3002_139">
<rect width="9.63023" height="9.63023" fill="white" transform="translate(0.903076 0.167908)"/>
</clipPath>
</defs>
</svg>
