<svg width="11" height="10" viewBox="0 0 11 10" fill="none" xmlns="http://www.w3.org/2000/svg">
<g clip-path="url(#clip0_3002_349)">
<path d="M8.1257 3.24811V4.45189M8.1257 4.45189V5.65567M8.1257 4.45189H9.32948M8.1257 4.45189H6.92193M6.01909 2.79669C6.01909 3.54463 5.41277 4.15095 4.66484 4.15095C3.91691 4.15095 3.31059 3.54463 3.31059 2.79669C3.31059 2.04876 3.91691 1.44244 4.66484 1.44244C5.41277 1.44244 6.01909 2.04876 6.01909 2.79669ZM2.10718 7.95662C2.10694 7.94203 2.10681 7.9274 2.10681 7.91275C2.10681 6.49999 3.25208 5.35472 4.66484 5.35472C6.0776 5.35472 7.22287 6.49999 7.22287 7.91275V7.91378C7.22286 7.92809 7.22274 7.94237 7.2225 7.95662C6.47547 8.4064 5.60037 8.66511 4.66484 8.66511C3.72931 8.66511 2.85421 8.4064 2.10718 7.95662Z" stroke="#515251" stroke-width="0.770418" stroke-linecap="round" stroke-linejoin="round"/>
</g>
<defs>
<clipPath id="clip0_3002_349">
<rect width="9.63023" height="9.63023" fill="white" transform="translate(0.903076 0.238647)"/>
</clipPath>
</defs>
</svg>
