<svg width="11" height="10" viewBox="0 0 11 10" fill="none" xmlns="http://www.w3.org/2000/svg">
<path d="M10.5283 3.805C10.4912 3.91397 10.4634 4.02757 10.4147 4.12727C10.2176 4.51908 9.89538 4.73933 9.45951 4.74861C8.69211 4.76252 7.92471 4.7602 7.15962 4.75093C6.58001 4.74397 6.10009 4.26174 6.09314 3.68444C6.08386 2.91704 6.08386 2.14964 6.09314 1.38223C6.10009 0.804939 6.58233 0.322703 7.15962 0.315748C7.92702 0.306474 8.69443 0.308793 9.45951 0.315748C9.96493 0.320385 10.3915 0.686699 10.5051 1.18748C10.5098 1.21298 10.5214 1.23617 10.5306 1.26167C10.5283 2.1079 10.5283 2.95645 10.5283 3.805Z" fill="#11453B"/>
<path d="M1.85512 9.93493C1.79252 9.91638 1.73224 9.90015 1.66964 9.87929C1.23377 9.73786 0.91383 9.32518 0.909193 8.86381C0.902237 8.09641 0.899919 7.329 0.909193 6.5616C0.916148 5.98431 1.39838 5.50207 1.97568 5.49511C2.74308 5.48584 3.51048 5.48584 4.27557 5.49511C4.85518 5.50207 5.3351 5.98199 5.34205 6.5616C5.35133 7.329 5.35133 8.09641 5.34205 8.86381C5.33742 9.36923 4.96646 9.80278 4.47032 9.90943C4.44482 9.91406 4.42163 9.92566 4.39613 9.93261C3.5499 9.93493 2.70367 9.93493 1.85512 9.93493Z" fill="#11453B"/>
<path d="M8.07778 9.93506C7.84362 9.86551 7.59787 9.82146 7.3753 9.72409C6.47574 9.323 5.97496 8.37475 6.11406 7.3755C6.2439 6.44581 7.01826 5.66681 7.95723 5.52075C9.19527 5.32832 10.3429 6.18151 10.5075 7.41956C10.5098 7.44042 10.5214 7.46129 10.5284 7.48447C10.5284 7.63981 10.5284 7.79282 10.5284 7.94816C10.5214 7.96903 10.5121 7.98989 10.5075 8.01308C10.3522 8.93813 9.82821 9.54788 8.94024 9.84465C8.81041 9.8887 8.67362 9.90724 8.53915 9.9397C8.38614 9.93506 8.2308 9.93506 8.07778 9.93506Z" fill="#11453B"/>
<path d="M5.34671 2.54379C5.34671 2.89851 5.34902 3.25323 5.34671 3.60795C5.34439 4.27566 4.86911 4.75094 4.2014 4.75326C3.485 4.75558 2.7686 4.75558 2.04988 4.75326C1.38681 4.75094 0.909209 4.27334 0.90689 3.60795C0.904572 2.89155 0.904572 2.17283 0.90689 1.45644C0.909209 0.788725 1.38681 0.311126 2.0522 0.311126C2.7686 0.308808 3.485 0.308808 4.20371 0.311126C4.86911 0.313444 5.34671 0.788725 5.34902 1.45644C5.34902 1.81811 5.34671 2.17979 5.34671 2.54379Z" fill="#11453B"/>
</svg>
