<svg width="11" height="10" viewBox="0 0 11 10" fill="none" xmlns="http://www.w3.org/2000/svg">
<path d="M5.54726 0.274048C5.60944 0.274048 5.6735 0.274048 5.73567 0.274048C6.05973 0.343771 6.23494 0.556711 6.32161 0.863871C6.36117 1.0052 6.42335 1.139 6.46856 1.28033C6.48929 1.3444 6.51943 1.36513 6.58914 1.36513C7.14682 1.36136 7.7045 1.36324 8.26218 1.36324C8.69928 1.36324 8.97059 1.63648 8.97059 2.07367C8.97059 2.28661 8.97059 2.49766 8.97059 2.7106C8.98754 2.71437 8.99508 2.71814 9.0045 2.72003C9.59044 2.78786 9.96725 3.20809 9.96725 3.79603C9.96725 4.1258 9.96725 4.45369 9.96725 4.78347C9.96725 4.81739 9.96725 4.84942 9.96725 4.87957C9.98798 4.88711 9.99551 4.89276 10.0049 4.89465C10.3459 4.9851 10.5306 5.22442 10.5325 5.57681C10.5325 6.06299 10.5343 6.54728 10.5325 7.03346C10.5306 7.35193 10.3309 7.60444 10.0238 7.68359C10.0068 7.68736 9.98986 7.6949 9.97479 7.69866C9.97102 7.70997 9.96913 7.71751 9.96913 7.72316C9.96913 8.09062 9.97102 8.4562 9.96725 8.82366C9.96725 8.916 9.95971 9.01211 9.93899 9.10256C9.82595 9.5812 9.41899 9.90155 8.9216 9.90344C6.59668 9.90532 4.27176 9.90344 1.94872 9.90344C1.93365 9.90344 1.9167 9.90344 1.90162 9.90155C1.53235 9.87705 1.24032 9.71311 1.0538 9.39276C0.982206 9.27215 0.952062 9.13082 0.903076 9.0008C0.903076 7.20871 0.903076 5.41475 0.903076 3.62266C0.908728 3.6057 0.916265 3.58874 0.920033 3.5699C1.01235 3.14025 1.27047 2.86889 1.69249 2.74829C1.74902 2.73322 1.80742 2.72568 1.86959 2.71249C1.83003 2.60508 1.79423 2.5052 1.75844 2.40533C1.6096 1.99641 1.77351 1.64402 2.18235 1.49515C3.30336 1.08812 4.42625 0.681083 5.54726 0.274048ZM9.40203 4.87957C9.40203 4.50269 9.40203 4.13899 9.40203 3.7753C9.40203 3.47945 9.20421 3.28158 8.90464 3.28158C6.59103 3.28158 4.2793 3.28158 1.96568 3.28158C1.66235 3.28158 1.46829 3.47756 1.46829 3.78095C1.46829 5.46374 1.46829 7.14653 1.46829 8.8312C1.46829 9.14025 1.66423 9.33811 1.97322 9.33811C4.28307 9.33811 6.59291 9.33811 8.90276 9.33811C9.20421 9.33811 9.40392 9.14025 9.40392 8.83874C9.40392 8.48824 9.40392 8.13585 9.40392 7.78535C9.40392 7.75897 9.40015 7.73258 9.39827 7.70243C9.11377 7.70243 8.83682 7.70432 8.56175 7.70243C8.43928 7.70243 8.31682 7.70243 8.19624 7.68736C7.52929 7.60633 7.01306 7.06173 6.96219 6.39653C6.9132 5.72756 7.34088 5.11512 7.99088 4.9361C8.12465 4.9003 8.26784 4.88711 8.40725 4.88334C8.7332 4.8758 9.06291 4.87957 9.40203 4.87957ZM5.11582 2.71814C5.11582 2.47505 5.11393 2.24327 5.11582 2.01148C5.11958 1.70244 5.33248 1.44427 5.63393 1.3802C5.71494 1.36324 5.80161 1.36324 5.8977 1.35382C5.83929 1.19741 5.78842 1.04101 5.72248 0.890253C5.71118 0.865756 5.64147 0.846912 5.60567 0.854449C5.53031 0.869525 5.45871 0.903444 5.38524 0.931711C4.38292 1.2954 3.3806 1.66098 2.37829 2.02467C2.26148 2.06802 2.24829 2.09628 2.29162 2.215C2.34061 2.35068 2.39525 2.48447 2.43858 2.62015C2.46119 2.69364 2.49698 2.72003 2.57611 2.72003C3.38814 2.71626 4.19828 2.71814 5.01031 2.71814C5.03857 2.71814 5.0706 2.71814 5.11582 2.71814ZM9.08363 5.4449C8.84812 5.4449 8.6145 5.44301 8.37899 5.4449C7.89856 5.45055 7.52552 5.81801 7.52363 6.28535C7.52175 6.75645 7.89668 7.13334 8.37899 7.13711C8.86131 7.14088 9.34363 7.13899 9.82595 7.13711C9.93711 7.13711 9.96725 7.10884 9.96725 6.99954C9.96725 6.52655 9.96725 6.05357 9.96725 5.58058C9.96725 5.4694 9.94087 5.4449 9.82595 5.4449C9.57725 5.4449 9.33044 5.4449 9.08363 5.4449ZM8.40537 2.71626C8.40537 2.47694 8.40726 2.24704 8.40349 2.01525C8.4016 1.94553 8.34697 1.92668 8.28291 1.92668C7.45581 1.92668 6.63059 1.92668 5.8035 1.92668C5.71683 1.92668 5.67726 1.96437 5.67915 2.05106C5.68103 2.20369 5.67915 2.35822 5.67915 2.51085C5.67915 2.57869 5.67915 2.64465 5.67915 2.71437C6.59291 2.71626 7.49161 2.71626 8.40537 2.71626Z" fill="#515251" stroke="#515251" stroke-width="0.192605"/>
<path d="M8.36892 6.33312C8.36258 6.33263 8.3526 6.32932 8.34274 6.31933C8.3321 6.30854 8.32913 6.29756 8.32913 6.29113C8.32913 6.28193 8.33286 6.27183 8.34183 6.2631C8.35083 6.25434 8.36133 6.25067 8.37098 6.2509L8.37678 6.01021C8.52946 6.01398 8.65387 6.14219 8.65198 6.29678M8.36892 6.33312L8.37083 6.2509C8.38035 6.25113 8.39047 6.25517 8.39896 6.26398C8.4069 6.27222 8.41093 6.28208 8.41123 6.29214M8.36892 6.33312C8.37632 6.33269 8.38684 6.32916 8.39691 6.31935C8.40703 6.30951 8.41067 6.29923 8.41123 6.29214M8.36892 6.33312L8.41123 6.29214M8.65198 6.29678L8.4113 6.29077C8.41129 6.29121 8.41127 6.29167 8.41123 6.29214M8.65198 6.29678L8.41124 6.29385C8.41125 6.29328 8.41124 6.29271 8.41123 6.29214M8.65198 6.29678L8.41123 6.29214" fill="#515251" stroke="#515251" stroke-width="0.481511"/>
</svg>
