<svg width="11" height="10" viewBox="0 0 11 10" fill="none" xmlns="http://www.w3.org/2000/svg">
<g clip-path="url(#clip0_3002_408)">
<path d="M4.61462 8.96678L4.45411 7.68275C4.36718 7.64931 4.28518 7.60918 4.20814 7.56237C4.1311 7.51556 4.05593 7.4654 3.98264 7.4119L2.78889 7.91347L1.68542 6.00749L2.71867 5.22503C2.71198 5.17822 2.70864 5.13301 2.70864 5.08941V4.81896C2.70864 4.77536 2.71198 4.73015 2.71867 4.68333L1.68542 3.90088L2.78889 1.9949L3.98264 2.49647C4.0562 2.44297 4.13311 2.39281 4.21336 2.346C4.29361 2.29918 4.37386 2.25906 4.45411 2.22562L4.61462 0.941589H6.82155L6.98205 2.22562C7.06899 2.25906 7.15098 2.29918 7.22802 2.346C7.30506 2.39281 7.38023 2.44297 7.45353 2.49647L8.64727 1.9949L9.75074 3.90088L8.7175 4.68333C8.72418 4.73015 8.72753 4.77536 8.72753 4.81896V5.08941C8.72753 5.13301 8.72084 5.17822 8.70746 5.22503L9.74071 6.00749L8.63724 7.91347L7.45353 7.4119C7.37996 7.4654 7.30306 7.51556 7.2228 7.56237C7.14255 7.60918 7.0623 7.64931 6.98205 7.68275L6.82155 8.96678H4.61462ZM5.73814 6.35859C6.12603 6.35859 6.45707 6.22149 6.73126 5.9473C7.00546 5.67311 7.14255 5.34207 7.14255 4.95418C7.14255 4.5663 7.00546 4.23526 6.73126 3.96107C6.45707 3.68687 6.12603 3.54978 5.73814 3.54978C5.34357 3.54978 5.0108 3.68687 4.73981 3.96107C4.46883 4.23526 4.33347 4.5663 4.33374 4.95418C4.33374 5.34207 4.4691 5.67311 4.73981 5.9473C5.01053 6.22149 5.34331 6.35859 5.73814 6.35859ZM5.73814 5.55607C5.57095 5.55607 5.42877 5.49749 5.31161 5.38032C5.19444 5.26315 5.13599 5.12111 5.13626 4.95418C5.13626 4.78699 5.19484 4.64481 5.31201 4.52764C5.42917 4.41048 5.57122 4.35203 5.73814 4.35229C5.90534 4.35229 6.04752 4.41088 6.16468 4.52805C6.28185 4.64521 6.3403 4.78726 6.34003 4.95418C6.34003 5.12138 6.28145 5.26355 6.16428 5.38072C6.04711 5.49789 5.90507 5.55634 5.73814 5.55607ZM5.31682 8.16426H6.10931L6.24975 7.10092C6.45707 7.04742 6.6494 6.96877 6.82676 6.86498C7.00412 6.76119 7.16623 6.63586 7.31309 6.489L8.3062 6.90029L8.69743 6.21815L7.83472 5.5661C7.86816 5.47248 7.89157 5.3739 7.90495 5.27038C7.91832 5.16685 7.92501 5.06145 7.92501 4.95418C7.92501 4.84718 7.91832 4.74192 7.90495 4.63839C7.89157 4.53487 7.86816 4.43616 7.83472 4.34226L8.69743 3.69022L8.3062 3.00808L7.31309 3.4294C7.16596 3.27558 7.00385 3.14691 6.82676 3.04339C6.64967 2.93986 6.45734 2.86121 6.24975 2.80745L6.11934 1.74411H5.32685L5.18641 2.80745C4.9791 2.86095 4.78689 2.93959 4.6098 3.04339C4.43271 3.14718 4.27047 3.27251 4.12308 3.41937L3.12996 3.00808L2.73873 3.69022L3.60144 4.33223C3.568 4.43255 3.54459 4.53286 3.53122 4.63318C3.51784 4.73349 3.51116 4.84049 3.51116 4.95418C3.51116 5.06119 3.51784 5.16484 3.53122 5.26516C3.54459 5.36547 3.568 5.46579 3.60144 5.5661L2.73873 6.21815L3.12996 6.90029L4.12308 6.47897C4.2702 6.63279 4.43245 6.76159 4.6098 6.86538C4.78716 6.96917 4.97936 7.04769 5.18641 7.10092L5.31682 8.16426Z" fill="#515251"/>
</g>
<defs>
<clipPath id="clip0_3002_408">
<rect width="9.63023" height="9.63023" fill="white" transform="translate(0.903076 0.139038)"/>
</clipPath>
</defs>
</svg>
