<svg width="9" height="11" viewBox="0 0 9 11" fill="none" xmlns="http://www.w3.org/2000/svg">
<path d="M7.23884 6.25537V4.72416C7.23815 4.04192 6.99604 3.38193 6.55539 2.86108C6.11474 2.34024 5.50398 1.99214 4.83128 1.87843V1.35358C4.83128 1.22588 4.78055 1.1034 4.69025 1.0131C4.59995 0.922801 4.47748 0.87207 4.34977 0.87207C4.22207 0.87207 4.09959 0.922801 4.00929 1.0131C3.91899 1.1034 3.86826 1.22588 3.86826 1.35358V1.87843C3.19556 1.99214 2.5848 2.34024 2.14415 2.86108C1.7035 3.38193 1.46139 4.04192 1.4607 4.72416V6.25537C1.17972 6.35471 0.936337 6.53853 0.763927 6.78163C0.591517 7.02472 0.498518 7.3152 0.497681 7.61323V8.57625C0.497681 8.70396 0.548411 8.82643 0.638712 8.91673C0.729013 9.00703 0.851487 9.05776 0.979192 9.05776H2.49114C2.60202 9.46578 2.84409 9.82597 3.17999 10.0828C3.51589 10.3396 3.92695 10.4787 4.34977 10.4787C4.77259 10.4787 5.18366 10.3396 5.51956 10.0828C5.85546 9.82597 6.09752 9.46578 6.20841 9.05776H7.72035C7.84806 9.05776 7.97053 9.00703 8.06083 8.91673C8.15113 8.82643 8.20186 8.70396 8.20186 8.57625V7.61323C8.20102 7.3152 8.10803 7.02472 7.93562 6.78163C7.76321 6.53853 7.51982 6.35471 7.23884 6.25537ZM2.42373 4.72416C2.42373 4.21334 2.62665 3.72344 2.98785 3.36224C3.34906 3.00104 3.83895 2.79812 4.34977 2.79812C4.86059 2.79812 5.35049 3.00104 5.71169 3.36224C6.07289 3.72344 6.27582 4.21334 6.27582 4.72416V6.16869H2.42373V4.72416ZM4.34977 9.53927C4.18171 9.53826 4.01684 9.49328 3.87155 9.40881C3.72626 9.32434 3.6056 9.20331 3.52157 9.05776H5.17797C5.09394 9.20331 4.97329 9.32434 4.82799 9.40881C4.6827 9.49328 4.51783 9.53826 4.34977 9.53927ZM7.23884 8.09474H1.4607V7.61323C1.4607 7.48552 1.51143 7.36305 1.60173 7.27275C1.69204 7.18245 1.81451 7.13172 1.94221 7.13172H6.75733C6.88503 7.13172 7.00751 7.18245 7.09781 7.27275C7.18811 7.36305 7.23884 7.48552 7.23884 7.61323V8.09474Z" fill="#8B8B8B"/>
</svg>
