<svg width="252" height="71" viewBox="0 0 252 71" fill="none" xmlns="http://www.w3.org/2000/svg">
<path d="M0.861938 68.1639C9.60939 69.3677 35.5308 72.1122 42.2719 66.7192C50.6984 59.9781 53.1059 28.9207 65.6252 30.1245C78.1445 31.3283 88.7378 63.1079 100.535 62.3857C112.332 61.6634 109.924 60.219 122.203 60.7005C134.481 61.182 145.556 67.2008 160.964 64.7932C176.373 62.3857 174.206 24.8278 174.928 18.0866C175.651 11.3455 180.225 0.993246 185.522 1.71551C190.818 2.43778 194.67 9.41938 196.596 13.753C198.522 18.0866 201.171 20.2534 206.227 19.7719C211.282 19.2904 214.894 23.3832 217.301 27.4761C219.709 31.5689 225.968 19.7719 231.506 19.7719C237.043 19.7719 243.062 35.6618 247.155 48.4218C250.429 58.6299 251.248 60.2188 251.248 59.7373" stroke="url(#paint0_linear_3002_656)" stroke-width="1.44453"/>
<defs>
<linearGradient id="paint0_linear_3002_656" x1="32.7787" y1="66.2712" x2="251.521" y2="59.238" gradientUnits="userSpaceOnUse">
<stop stop-color="#44EAF1" stop-opacity="0.33"/>
<stop offset="0.127791" stop-color="#219653"/>
<stop offset="0.802083" stop-color="#219653"/>
<stop offset="1" stop-color="#44F189" stop-opacity="0"/>
</linearGradient>
</defs>
</svg>
