<svg width="251" height="56" viewBox="0 0 251 56" fill="none" xmlns="http://www.w3.org/2000/svg">
<path d="M0.343506 53.8492C9.09096 55.053 28.2712 56.1123 35.0123 50.7194C43.4388 43.9782 48.0131 26.8846 60.5324 28.0884C73.0517 29.2921 81.4782 47.1081 93.2752 46.3858C105.072 45.6635 113.67 43.7988 118.314 32.422C123.129 20.6248 120.721 24.7176 121.444 13.6431C122.459 -1.9192 135.58 -1.03502 139.741 4.97569C141.908 8.1058 141.908 14.3655 147.204 15.0877C152.501 15.81 189.577 21.8286 191.504 26.1622C193.43 30.4958 194.633 30.7368 199.689 30.2553C204.745 29.7737 202.097 30.2553 208.356 30.2553C213.105 30.2553 212.449 32.422 217.987 32.422C223.524 32.422 235.803 19.662 239.895 32.422C243.17 42.63 250.007 41.5708 250.007 41.0892" stroke="url(#paint0_linear_3002_655)" stroke-width="1.44453"/>
<defs>
<linearGradient id="paint0_linear_3002_655" x1="32.1682" y1="51.9281" x2="250.145" y2="43.074" gradientUnits="userSpaceOnUse">
<stop stop-color="#EF4444" stop-opacity="0.45"/>
<stop offset="0.127791" stop-color="#EF4444"/>
<stop offset="0.802083" stop-color="#EF4444"/>
<stop offset="1" stop-color="#EF4444" stop-opacity="0.43"/>
</linearGradient>
</defs>
</svg>
