<svg width="9" height="9" viewBox="0 0 9 9" fill="none" xmlns="http://www.w3.org/2000/svg">
<path d="M0.886475 4.2584C0.895549 4.22815 0.904624 4.19639 0.913699 4.16614C0.98176 3.92263 1.13149 3.7487 1.36442 3.6519C3.42289 2.8034 5.48287 1.95491 7.54135 1.10641C7.8393 0.9839 8.16751 1.04894 8.39135 1.27278C8.61369 1.49511 8.6757 1.81878 8.55319 2.11674C7.70469 4.17824 6.8562 6.24125 6.0077 8.30274C5.90939 8.54323 5.72941 8.68994 5.47985 8.75649C5.46321 8.76102 5.44809 8.76707 5.43145 8.77312C5.34524 8.77312 5.26054 8.77312 5.17433 8.77312C5.13803 8.76254 5.10324 8.75346 5.06694 8.74287C4.85217 8.67481 4.6858 8.54625 4.59808 8.33753C4.38936 7.84295 4.18517 7.34535 3.98099 6.84775C3.90839 6.66928 3.99914 6.49988 4.18064 6.47266C4.30012 6.45451 4.41053 6.52105 4.46347 6.64961C4.60564 6.99295 4.74781 7.33628 4.88998 7.67961C4.94746 7.81875 5.00493 7.9579 5.06392 8.09705C5.10778 8.20292 5.19097 8.2604 5.29533 8.25888C5.40876 8.25586 5.49195 8.20443 5.53581 8.09705C6.38279 6.03706 7.22978 3.97708 8.07676 1.91709C8.12062 1.81273 8.10852 1.71896 8.02987 1.64031C7.94215 1.55108 7.8393 1.542 7.72435 1.58889C6.99081 1.89289 6.25726 2.19388 5.52371 2.49637C4.20635 3.03784 2.8905 3.58081 1.57314 4.12228C1.46424 4.16765 1.40071 4.25991 1.40071 4.37335C1.40071 4.47922 1.4597 4.55787 1.57314 4.60475C2.29156 4.89969 3.00847 5.19462 3.72538 5.49106C3.77378 5.51072 3.79949 5.50467 3.83428 5.46838C4.2003 5.09782 4.56783 4.72878 4.93687 4.36125C5.08661 4.21151 5.31953 4.26596 5.377 4.46107C5.40422 4.55636 5.38305 4.64257 5.31499 4.71214C4.88847 5.14017 4.46196 5.56669 4.03393 5.9932C3.9462 6.07941 3.83882 6.09756 3.72689 6.05068C2.92377 5.71793 2.11914 5.38821 1.31904 5.05093C1.08915 4.95414 0.959073 4.76054 0.903112 4.51854C0.898574 4.50191 0.892524 4.48678 0.886475 4.47014C0.886475 4.39906 0.886475 4.32948 0.886475 4.2584Z" fill="#219653" stroke="#219653" stroke-width="0.236155"/>
</svg>
